<?xml version="1.0" encoding="utf-8"?>
<!-- Generator: Adobe Illustrator 16.0.0, SVG Export Plug-In . SVG Version: 6.00 Build 0)  -->
<!DOCTYPE svg PUBLIC "-//W3C//DTD SVG 1.1//EN" "http://www.w3.org/Graphics/SVG/1.1/DTD/svg11.dtd">
<svg version="1.1" id="Layer_1" xmlns="http://www.w3.org/2000/svg" xmlns:xlink="http://www.w3.org/1999/xlink" x="0px" y="0px"
	 width="1000px" height="220.916px" viewBox="0 0 1000 220.916" enable-background="new 0 0 1000 220.916" xml:space="preserve">
<g>
	<path d="M128.403,208.96c-1.357,0.096-2.73,0.104-4.087,0.014c-1.087-0.073-2.015,0.089-2.77,0.909
		c0.059,0.045,0.117,0.126,0.176,0.127c6.414,0.033,12.829,0.065,19.243,0.061c0.193,0,0.387-0.398,0.649-0.688
		C139.65,208.98,131.025,208.775,128.403,208.96 M178.976,200.125c0.233,0.076,0.535,0.09,0.708,0.246
		c1.533,1.376,3.037,0.717,4.54-0.033c0.383-0.191,0.736-0.441,1.114-0.643c0.136-0.073,0.308-0.08,0.44-0.112
		c0.371,0.181,0.716,0.351,1.351,0.659c-0.113-1.017-0.189-1.698-0.265-2.381c0.605,0.333,0.933,0.734,1.024,1.185
		c0.135,0.668,0.124,1.367,0.137,2.055c0.014,0.783,0.379,1.516,1.102,1.522c2.048,0.019,3.963,0.895,6.095,0.632
		c1.119-0.14,2.024-0.789,3.126-0.796c1.203-0.007,2.405-0.081,3.607-0.105c0.659-0.013,1.319,0.017,1.979,0.03
		c1.15,0.023,2.211-0.174,3.067-1.253L175.571,52.93h-32.133c-10.632,49.916-21.254,99.782-31.915,149.837
		c1.697-0.652,3.104-1.193,4.628-1.778c0.104-0.819,0.163-1.75,0.371-2.646c0.059-0.255,0.545-0.41,1.069-0.775
		c-0.028,1.465-0.882,2.819,0.623,3.778c0.333-0.519,0.581-0.901,0.846-1.312c0.361,0.535,0.685,1.013,1.002,1.482
		c0.859-0.208,1.596-0.388,2.269-0.55c0.28-0.755,0.524-1.414,0.898-2.427c0.398,1.183,0.664,1.969,0.914,2.712
		c5.367,0.934,10.562,0.222,15.733-0.191c0.272-0.405,0.527-0.78,0.854-1.265c0.46,1.249,0.349,2.676,2.244,2.924
		c5.415-27.992,10.797-55.813,16.18-83.634c1.544,4.239,2.138,8.636,3.012,12.968c0.899,4.463,1.72,8.942,2.577,13.413
		c0.842,4.387,1.687,8.772,2.529,13.159c0.842,4.387,1.685,8.772,2.526,13.16c0.856,4.471,1.707,8.943,2.565,13.414
		c0.833,4.341,1.491,8.722,2.579,12.979C178.607,197.738,178.837,197.857,178.976,200.125 M185.421,210.591
		c-0.098-0.13-0.203-0.374-0.293-0.37c-2.545,0.14-5.088,0.303-7.633,0.462C179.876,211.917,183.004,211.719,185.421,210.591
		 M198.267,208.34c-6.247,0.446-11.938,0.127-17.957,0.312c2.518,1.146,4.771,1.151,7.078,0.634c0.833-0.188,1.743-0.557,2.52-0.388
		c2.823,0.61,5.632,0.141,8.445,0.151c0.769,0.003,1.535,0.204,2.306,0.225c2.144,0.059,4.289,0.098,6.432,0.077
		c0.423-0.004,0.846-0.311,1.625-0.62c-2.647-0.279-4.858-0.532-7.074-0.734c-0.913-0.083-1.709-0.236-1.917-1.592
		c2.763-0.303,5.447,1.301,8.44,0.401c-0.869-0.907-1.764-0.644-2.544-0.646c-9.025-0.026-18.051-0.028-27.076-0.03
		c-0.514,0-1.069-0.049-1.523,0.132c-0.248,0.097-0.322,0.632-0.478,0.975c0.315,0.128,0.467,0.245,0.619,0.243
		c5.844-0.057,11.688-0.121,17.532-0.197C195.771,207.267,196.837,207.242,198.267,208.34 M202.115,211.548
		c-0.591,0.002-1.245-0.005-1.761,0.23c-1.803,0.82-3.66,0.764-5.558,0.593c-1.538-0.137-3.093-0.101-4.627-0.271
		c-4.412-0.489-8.225,1.088-12.037,3.352c0.315,1.632,0.632,3.272,0.958,4.966h31.982c-0.63-2.778-0.994-5.622-1.923-8.365
		C206.739,211.53,204.425,211.537,202.115,211.548 M191.59,210.895c3.058,0.91,5.615,1.217,8.075-0.436
		C197.142,210.952,194.486,209.012,191.59,210.895 M204.52,210.764c1.141,0.284,2.303,0.489,3.957-0.082
		C206.792,209.997,205.661,209.929,204.52,210.764 M139.539,206.106c-8.748-0.015-17.495-0.021-26.242-0.026
		c-0.514,0-1.031-0.008-1.542,0.03c-1.04,0.076-1.225,0.756-1.115,1.576c2.507,0.269,4.785,0.594,7.074,0.726
		c1.257,0.072,2.562-0.055,3.791-0.332c1.175-0.265,2.281-0.668,3.515-0.303c0.476,0.141,1.033,0.134,1.532,0.057
		c4.021-0.622,8.047-0.184,12.07-0.089c0.856,0.021,1.72,0.108,2.567,0.029c0.952-0.088,1.047-0.695,0.605-1.563
		C141.068,206.175,140.304,206.108,139.539,206.106 M300.162,209.695c-1.546,0.213-0.035,1.189-0.51,1.801
		c-2.92,0.625-5.998,0.672-9.068,0.761c-1.274,0.037-2.522-0.139-3.802,0.292c-0.979,0.329-1.964-0.084-2.608-1.364
		c1.52,0,3.041,0.022,4.56-0.008c1.545-0.03,3.095-0.049,4.631-0.195c1.455-0.138,3,0.134,4.334-0.841
		c-2.571-0.096-5.127,0.026-7.684,0.117c-1.542,0.054-3.087,0.122-4.627,0.075c-2.742-0.084-5.481-0.262-8.224-0.371
		c-0.38-0.016-0.767,0.132-1.15,0.203c0.733,0.446,1.468,0.559,2.208,0.61c0.684,0.045,1.392-0.065,2.05,0.073
		c0.314,0.065,0.54,0.551,1.048,1.116c-2.478,0.148-4.506,0.382-6.489-0.473c-0.862-0.372-1.782-0.473-2.924,0.12
		c1.26,3.014,2.488,5.951,3.681,8.807h24.948v-5.11C300.526,212.995,300.397,210.737,300.162,209.695 M354.416,210.739h-1.605
		l0.043,0.669c0.535-0.08,1.069-0.16,1.604-0.24L354.416,210.739z M338.311,206.444v1.439c0.935,0,1.779-0.001,2.623,0.001
		c5.247,0.009,10.493,0.016,15.74,0.032c0.772,0.003,1.554-0.007,2.31,0.117c0.262,0.044,0.458,0.481,1.036,1.14
		c-2.196,0-3.897,0.004-5.598-0.001c-4.903-0.013-9.805-0.04-14.708-0.03c-0.502,0.001-1.279-0.273-1.313,0.916
		c0.871,0,1.721-0.001,2.57,0.001c3.871,0.008,7.742-0.019,11.611,0.04c2.059,0.03,4.125,0.122,6.172,0.342
		c1.984,0.214,3.91,0.159,5.892-0.168c2.776-0.457,5.537-0.893,8.436-0.457c3.387,0.51,6.852,0.523,10.286,0.685
		c1.786,0.083,3.544-0.192,5.254-0.981c-0.558-0.069-1.116-0.193-1.675-0.201c-2.408-0.033-4.817-0.035-7.225-0.046
		c-5.763-0.027-11.525-0.041-17.288-0.091c-0.691-0.005-1.51,0.241-2.174-0.628c0.833-0.877,1.814-0.602,2.675-0.6
		c8.945,0.01,17.891,0.047,26.835,0.082c0.599,0.003,1.199,0.04,1.795,0.101c0.082,0.009,0.141,0.246,0.283,0.509
		c-0.57,0.288-1.135,0.571-1.612,0.812c0.203,0.64,0.362,1.139,0.501,1.578c-0.308,0.226-0.434,0.391-0.585,0.417
		c-4.005,0.676-8.024,1.09-12.028,0.069c-2.646-0.673-5.266-0.56-7.927-0.143c-2.381,0.374-4.778,0.544-7.163-0.084
		c-1.709-0.45-3.368-0.282-5.063,0.281c-1.196,0.396-2.506,0.556-3.774,0.602c-1.454,0.052-2.917-0.149-4.378-0.219
		c-3.348-0.162-6.697-0.326-10.048-0.449c-0.579-0.021-1.552-0.016-1.68,0.271c-0.542,1.223-1.533,0.869-2.396,0.887
		c-0.938,0.021-1.877-0.09-2.816-0.144c-0.715-1.412-2.047-0.988-3.147-0.938c-4.208,0.197-8.411,0.492-12.614,0.767
		c-1.179,0.077-2.354,0.208-3.751,0.335c0.015,2.615-0.073,5.114,0.046,7.731h64.416c1.097-0.174,2.187-0.392,3.256-0.648
		c6.604-1.584,11.675-5.302,14.728-11.506c0.287-0.582,0.441-1.229,0.667-1.874C393.972,205.949,340.395,206.011,338.311,206.444
		 M438.304,212.32c-1.953,0-3.751,0.002-5.549-0.001c-2.319-0.003-4.639-0.047-6.956,0.004c-0.91,0.019-1.334-0.43-1.636-1.226
		c-1.263,0.188-2.79,0.008-3.738,0.663c-1.146,0.792-2.202,0.676-3.335,0.667c-3.352-0.024-6.703-0.116-10.053-0.163
		c-1.447-0.02-2.881-0.177-4.19,0.843c-0.542,0.422-1.471,0.371-2.231,0.486c-0.75,0.115-1.51,0.169-2.424,0.266
		c-0.468,2.19-0.922,4.318-1.401,6.56h45.467c-0.511-2.104-0.989-4.073-1.497-6.163C439.28,214.309,438.612,213.375,438.304,212.32
		 M110.047,209.221c0.071,0.431,0.125,0.75,0.201,1.2c2.434-0.117,4.796-0.23,7.158-0.345
		C115.074,208.974,112.617,208.982,110.047,209.221 M274.063,208.33c0.736-0.404,0.844-1.718,1.913-1.514
		c2.735,0.52,5.91-1.088,8.195,1.663c0.101,0.119,0.305,0.151,0.459,0.228c0.83,0.411,1.532,0.271,1.942-0.582
		c0.313-0.654,0.635-1.31,1.439-1.26c0.753,0.046,1.921,0.061,2.163,0.5c0.743,1.351,2.061,1.102,3.037,1.656
		c0.819-0.735,0.794-2.12,2.212-2.069c1.31,0.048,1.743,1.108,2.217,1.863c1.046-0.396,1.88-0.711,2.768-1.047v-1.384
		c-3.146-0.455-28.252-0.341-30.454,0.149c0.136,0.389,0.161,0.898,0.421,1.093c0.373,0.279,1.105,0.598,1.356,0.424
		C272.635,207.427,273.294,208.056,274.063,208.33 M244.688,206.29c-0.618-0.063-0.955-0.129-1.293-0.13
		c-8.588-0.008-17.175-0.01-25.764-0.008c-0.427,0-0.936-0.086-1.259,0.111c-0.313,0.19-0.438,0.692-0.848,1.414h29.164V206.29z
		 M241.332,210.816c-1.068-0.283-2.096-0.585-3.581,0.284C239.309,211.284,240.347,211.502,241.332,210.816 M288.736,203.508
		c0.495-0.072,1.052-0.172,1.439-0.451c2.143-1.549,4.542-1.899,7.097-1.72c0.994,0.07,1.999,0.011,2.908,0.011
		c0.148-0.345,0.271-0.497,0.271-0.65c0.026-47.944,0.043-95.889,0.058-143.833h0.001V52.93h-29.222v2.789h0.001
		c-0.017,1.702,0.031,3.373,0.015,5.042c-0.025,2.751-0.005,5.503-0.005,8.256v48.503c0,2.752,0.024,5.505-0.007,8.256
		c-0.031,2.63,0.142,5.27-0.361,7.948c-2.807-6.633-5.265-13.36-7.763-20.073c-2.517-6.763-5.042-13.523-7.565-20.285
		c-2.552-6.843-5.105-13.685-7.654-20.528c-2.463-6.612-4.922-13.227-7.408-19.908h-24.847v0.172c0,0.561-0.001,1.246,0,1.929
		c0,0.256,0,0.512,0,0.769v0.049c0.024,48.66,0.048,97.32,0.078,145.981c0,0.074,0.071,0.152,0.114,0.226
		c0.042,0.073,0.091,0.144,0.223,0.347c2.176,0.381,4.447,0.66,6.755,0.273c0.083-0.864,0.156-1.619,0.228-2.357
		c2.189,0.449,0.631,3.188,2.822,3.905c1.117-1.517,2.767-1.372,4.372-1.553c1.583-0.177,3.267,0.132,4.741-0.789
		c0.134-0.083,0.464,0.024,0.633,0.143c1.137,0.793,1.895-0.059,2.548-0.575c2.08,1.579,4.262,1.082,6.619,1.082v-47.948
		c0-1.118-0.026-2.236,0.008-3.354c0.032-1.037-0.161-2.11,0.604-3.171c7.553,18.129,15.106,36.259,22.625,54.306
		c2.573,0.31,4.954,0.563,7.326,0.892C279.83,203.867,284.274,204.162,288.736,203.508 M244.697,212.167
		c-1.023,0-1.863,0.017-2.702-0.002c-3.426-0.079-6.852-0.152-10.275-0.261c-1.454-0.046-2.907-0.282-4.354-0.245
		c-3.683,0.098-7.363,0.296-11.043,0.47c-0.142,0.006-0.276,0.17-0.63,0.404c0,1.211-0.013,2.569,0.003,3.928
		c0.016,1.301,0.055,2.605,0.088,3.957h29.045C244.777,217.57,244.948,214.959,244.697,212.167 M244.615,209.939
		c0.016-0.176,0.031-0.354,0.046-0.531c-2.242-0.606-4.588-0.369-6.892-0.43c-2.398-0.063-4.798-0.051-7.198-0.06
		c-2.4-0.008-4.799-0.009-7.199,0.001c-2.283,0.012-4.568-0.01-6.833,0.336c3.507,0.354,7.006,0.57,10.507,0.727
		c1.193,0.054,2.407,0.064,3.589-0.087c4.019-0.516,8.025-0.546,12.039,0.031C243.31,210.018,243.968,209.939,244.615,209.939
		 M438.319,206.826c-0.032-0.191-0.218-0.358-0.466-0.743c-0.377,0.664-0.647,1.138-1.028,1.808
		C438.314,208.373,438.472,207.735,438.319,206.826 M332.776,202.685c0.085,0.069,0.376,0.021,0.462-0.071
		c0.475-0.517,0.441-1.058-0.022-1.571c-0.047-0.051-0.147-0.053-0.436-0.149C332.199,201.548,332.101,202.139,332.776,202.685
		 M434.307,208.221c1.322-0.018,1.322-0.018,1.768-2.12C434.722,206.589,434.722,206.589,434.307,208.221 M316.059,203.058
		c3.686-0.255,7.372-0.516,11.062-0.674c1.352-0.06,2.716,0.156,4.324,0.265c0.042-1.024,0.099-1.941,0.112-2.859
		c0.021-1.394,0.009-1.395,0.454-2.415c0.635,0.723-0.265,2.076,1.014,2.663c1.127-2.037,1.568-4.067,1.456-6.26
		c-0.065-1.283-0.247-2.68,0.159-3.84c0.596-1.703,0.448-3.379,0.502-5.079c0.023-0.738,0.004-1.478,0.004-2.218
		c0.328,1.734,0.108,3.485,0.376,5.158c0.462,2.875,0.862,5.726,0.666,8.646c-0.049,0.73,0.275,1.417,0.838,2.043
		c0.334-0.571,0.556-0.948,0.921-1.571c0.47,2.17-0.221,4.104,0.605,5.885c0.515,0.036,0.941,0.086,1.368,0.093
		c2.228,0.033,4.436,0.103,6.668,0.352c3.742,0.417,7.597,0.743,10.757-1.89c0.571,0.17,1.012,0.232,1.386,0.425
		c2.081,1.066,4.191,1.386,6.462,0.581c0.791-0.279,1.696-0.261,2.553-0.319c2.829-0.194,5.659-0.401,8.492-0.515
		c0.84-0.033,1.786,0.034,2.521,0.39c2.18,1.056,4.241,1.004,6.441,0.028c1.324-0.586,2.721-0.578,4.241-0.108
		c2.732,0.847,5.586,0.236,8.418,0.38c0.84-3.273,1.08-6.356,1.081-9.447c0.02-37.326,0.033-74.652-0.026-111.978
		c-0.005-2.99-0.315-6.028-0.904-8.959c-1.967-9.788-7.749-16.037-17.595-18.359c-1.004-0.237-2.012-0.41-3.023-0.544h-63.912
		v149.695C314.354,203.446,315.21,203.116,316.059,203.058 M343.706,83.769c0.526-0.049,1.098-0.146,1.668-0.148
		c5.418-0.011,10.835-0.006,16.254-0.004c0.43,0.001,0.861-0.003,1.289,0.033c3.79,0.321,5.541,2.184,5.637,5.988
		c0.014,0.515,0.005,1.031,0.005,1.547c0.001,30.701,0.001,61.401-0.001,92.101c-0.001,0.859,0.035,1.727-0.055,2.577
		c-0.272,2.582-1.625,4.063-4.175,4.545c-0.925,0.175-1.88,0.254-2.822,0.258c-5.418,0.026-10.835,0.023-16.254,0.012
		c-0.498-0.001-0.995-0.135-1.46-0.201C343.365,188.487,343.279,86.84,343.706,83.769 M336.176,179.763
		c-1.079,1.039-1.173,1.036-2.306,0H336.176z M413.839,211.574c1.039-0.108,1.931-0.19,2.818-0.309
		c0.098-0.015,0.167-0.236,0.251-0.362C414.855,210.342,414.855,210.342,413.839,211.574 M435.57,210.185
		c1.177,0.348,1.907,0.611,2.668-0.467c-0.741-0.063-1.22-0.144-1.694-0.127C436.347,209.599,436.158,209.815,435.57,210.185
		 M433.811,210.348c0.396-0.098,0.782-0.242,1.17-0.377l-0.102-0.393c-0.426,0.065-0.854,0.13-1.281,0.195
		C433.671,209.973,433.789,210.355,433.811,210.348 M474.953,206.255c1.873-0.023,3.565,0.355,4.9,2.032
		c0.667-0.618,1.151-0.942,1.934-0.457c1.032,0.641,2.148,0.809,3.433,0.555c1.569-0.309,3.207-0.298,4.818-0.339
		c0.657-0.017,1.332,0.143,1.978,0.307c1.783,0.455,3.578,0.661,5.655,0.553c-0.28-1.043-0.511-1.9-0.742-2.762H467.76
		C470.159,206.262,472.556,206.284,474.953,206.255 M438.665,197.584c-1.726,2.828-1.902,3.386-1.669,5.242
		C438.353,201.32,438.947,199.807,438.665,197.584 M484.102,210.952c2.371,0.426,4.55,0.633,6.537-0.772
		c-1.349-0.116-2.697-0.242-4.048-0.349C485.596,209.752,484.666,209.833,484.102,210.952 M399.462,209.609
		c0.006,0.171,0.013,0.344,0.02,0.516c0.989,0.216,1.998,0.367,2.963,0.661c1.628,0.496,3.172,0.359,4.797-0.121
		c1.376-0.407,2.855-0.66,4.287-0.651c5.926,0.037,11.851,0.199,17.775,0.313c0.858,0.016,1.719,0.055,2.574,0.007
		c0.237-0.013,0.459-0.299,0.814-0.55c-0.651-0.295-1.055-0.479-1.745-0.793c0.935-0.269,1.559-0.448,2.234-0.643
		c0.146-0.736,0.274-1.38,0.424-2.137c-0.666-0.06-1.165-0.145-1.664-0.145c-10.05-0.002-20.101,0.005-30.151,0.017
		c-0.511,0.001-1.065-0.036-1.518,0.147c-0.294,0.118-0.438,0.605-0.731,1.055c4.289,0.594,8.399,1.139,12.494,0.556
		c5.231-0.746,10.282,0.348,15.395,1.053C418.08,208.426,408.774,209.098,399.462,209.609 M450.69,210.636
		c-1.441,3.187-1.047,6.462-0.643,9.73c0.001,0.018,0.009,0.035,0.017,0.052h0.719c-0.245-1.669-0.538-3.127-0.555-4.588
		C450.207,214.101,450.521,212.369,450.69,210.636 M316.569,208.5c4.716-0.148,9.429-0.353,14.143-0.551
		c0.234-0.011,0.463-0.153,0.791-0.268c-0.071-0.486-0.138-0.947-0.227-1.562c-2.466,0-4.774-0.006-7.083,0.002
		c-3.347,0.013-6.692,0.03-10.038,0.067c-0.22,0.003-0.436,0.2-0.757,0.358c0.028,0.499,0.055,0.99,0.094,1.7
		C314.554,208.341,315.565,208.532,316.569,208.5 M102.982,206.167c-0.347-0.178-0.834-0.103-1.262-0.104
		c-8.487-0.024-16.974-0.046-25.461-0.053c-0.489,0-0.979,0.13-1.484,0.202v1.426c9.623-0.101,19.096-0.2,28.84-0.303
		C103.335,206.787,103.248,206.305,102.982,206.167 M78.454,211.066c-0.023-0.149-0.047-0.3-0.07-0.449
		c-0.544,0.042-1.089,0.085-1.634,0.127c0.034,0.224,0.067,0.448,0.102,0.672L78.454,211.066z M93.829,212.31
		c-1.968,0.025-3.935,0.177-5.903,0.247c-3.718,0.134-7.417-0.526-11.144-0.238c-1.403,0.109-2.139,0.485-2.171,1.611
		c-0.062,2.091-0.024,4.187-0.02,6.488h28.837v-8.121C100.14,212.297,96.984,212.267,93.829,212.31 M140.284,211.511
		c-9.449,0.015-18.899,0.031-28.348,0.071c-0.75,0.003-1.499,0.172-2.328,0.272c-0.604,2.819-1.184,5.527-1.835,8.563h31.651
		c1.007-3.506,1.563-7.207,1.336-8.758C140.602,211.609,140.443,211.511,140.284,211.511 M88.369,211.36
		c1.306,0.285,2.317,0.242,3.729-0.525C90.532,210.513,89.488,210.322,88.369,211.36 M87.983,208.701
		c-1.807,0.029-3.565,0.115-5.315-0.46c-0.622-0.205-1.595-0.413-1.973-0.098c-1.199,1.001-2.6,0.687-3.905,0.959
		c-0.629,0.133-1.235,0.368-1.851,0.557c2.07,0.385,4.082,0.423,6.092,0.378c6.077-0.136,12.152-0.31,18.228-0.455
		c1.348-0.032,2.697-0.005,4.572-0.005c-0.693-0.622-0.813-0.822-0.935-0.823C97.926,208.712,92.952,208.619,87.983,208.701
		 M28.979,205.998c-9.681-0.149-19.249-0.044-28.94-0.025c0.088,0.749,0.143,1.221,0.227,1.923c3.987,0,7.837,0.005,11.686-0.01
		c0.333-0.002,0.671-0.125,0.997-0.223c1.525-0.456,3.045-0.369,4.579-0.037c0.745,0.161,1.511,0.298,2.27,0.312
		c2.488,0.048,4.979,0.046,7.466,0.032c0.574-0.002,1.147-0.124,1.715-0.191V205.998z M325.134,210.026
		c1.802-0.001,3.604,0.02,5.404-0.027c0.313-0.008,0.619-0.302,0.928-0.463c-2.62-0.491-5.116-1.152-7.684-0.592
		c-1.516,0.331-3.033,0.385-4.595,0.185c-1.432-0.185-2.903-0.119-4.353-0.063c-0.426,0.017-0.838,0.377-1.256,0.58
		c1.933,0.37,3.786,0.426,5.641,0.497c0.106,0.004,0.207,0.128,0.324,0.205c-0.49,0.137-0.948,0.264-1.406,0.391
		c0.042,0.185,0.083,0.368,0.125,0.552c1.55-0.069,3.1-0.14,4.743-0.214c-0.209-0.429-0.313-0.643-0.512-1.049
		C323.449,210.027,324.292,210.027,325.134,210.026 M2.176,209.065c-0.428-0.002-0.858-0.002-1.288,0.015
		c-0.896,0.035-0.909,0.576-0.762,1.056c1.658,0,3.253-0.038,4.846,0.011c1.322,0.042,2.756-0.103,3.928,0.365
		c1.173,0.469,1.958,0.46,3.087-0.083c1.339-0.646,2.87-0.929,4.309,0.09c1.135,0.804,2.474,0.688,3.708,0.381
		c2.687-0.669,4.482-0.717,7.638,0.061c0.905,0.224,1.234-0.155,1.237-1.574c-0.646-0.063-1.306-0.177-1.966-0.181
		C18.667,209.149,10.422,209.108,2.176,209.065 M74.626,201.182c2.253,0.453,2.605-1.076,3.09-2.487
		c0.952,1.973,0.939,2.041,3.19,2.459c1.855,0.344,3.747,0.502,5.622,0.739c1.456,0.186,2.725-0.037,3.441-1.534
		c0.043-0.09,0.309-0.074,0.158-0.042c0.882,0.379,1.515,0.87,2.16,0.887c1.888,0.049,3.784-0.052,5.67-0.185
		c0.533-0.037,1.043-0.388,1.434-0.542c1.221,0.612,2.474,1.24,3.666,1.838c0.205-0.179,0.296-0.223,0.329-0.294
		c0.071-0.152,0.146-0.314,0.158-0.478c0.032-0.428,0.042-0.858,0.042-1.289c-0.027-48-0.055-96.001-0.087-144.003V52.93H76.582
		c-7.99,20.384-15.836,40.718-24.03,61.548C44.332,93.536,36.336,73.168,28.39,52.93H0.145v147.775
		c1.713,0.084,3.307,0.409,4.797-0.537c-0.179-0.47-0.336-0.878-0.598-1.563c1.044,0.376,1.797,0.647,2.832,1.02
		c-0.283-1.221-0.503-2.175-0.711-3.073c0.865,0.093,1.666,0.179,2.462,0.265c0.844,1.375-1.484,2.426-0.24,3.979
		c2.776,0.49,5.848-0.843,8.786,0.847c0.098-0.661,0.263-1.091,0.191-1.477c-0.079-0.427-0.374-0.813-0.592-1.248
		c0.63-0.129,1.185-0.241,1.776-0.361c-0.045,0.766-0.082,1.415-0.116,1.998c1.451,0.356,2.77,0.715,4.104,0.996
		c1.539,0.324,1.913,0.101,2.764-1.456c-0.367-0.189-0.734-0.377-1.087-0.56c0.438-0.908,0.86-1.78,1.533-3.173
		c0.313,1.818,0.537,3.127,0.764,4.455c1.667-0.354,2.524-1.189,2.336-2.89c-0.065-0.595-0.009-1.203-0.009-1.806v-62.342
		c0.208-0.023,0.418-0.049,0.628-0.071c7.501,17.226,15.004,34.451,22.68,52.073c0.561-1.264,0.956-2.101,1.309-2.955
		c6.5-15.725,12.994-31.451,19.497-47.174c0.264-0.639,0.603-1.245,0.908-1.866c0.139,0.045,0.279,0.091,0.419,0.138v47.961
		c0,3.269-0.008,6.537,0.002,9.807C74.59,194.843,74.53,198.001,74.626,201.182 M28.955,212.029H0.015
		c0,0.931-0.011,1.743-0.014,2.506H0v5.884h29.156v-4.896h-0.002C29.148,214.357,29.104,213.197,28.955,212.029 M457.146,137.159
		c0.177,0.152,0.442,0.365,0.691,0.595c2.628,2.418,4.604,1.301,5.403-0.984c0.084-0.243,0.205-0.473,0.304-0.711
		c0.665-1.585,1.3-3.184,1.997-4.754c1.347-3.032,2.033-6.194,2.05-9.511c0.004-0.807,0.102-1.613,0.157-2.42
		c0.625,0.348,0.853,0.747,0.972,1.176c0.322,1.156,0.484,2.369,0.917,3.479c0.829,2.127,2.068,2.739,4.261,2.313
		c0.625-0.122,1.246-0.26,2.484-0.52c-0.861,0.971-1.247,1.521-1.743,1.939c-0.984,0.831-1.984,1.661-3.06,2.367
		c-2.563,1.679-4.158,4.047-5.169,6.881c-0.368,1.033-0.792,2.046-1.162,2.995c0.116,0.18,0.146,0.276,0.212,0.319
		c2.125,1.427,3.77,3.167,4.501,5.746c0.714,2.52-0.063,4.936-0.155,7.397c-1.577,1.141-0.405,2.278-0.081,3.497
		c0.484,1.815,0.831,3.684,1.046,5.551c0.126,1.096-0.061,2.151,0.85,3.096c0.347,0.36,0.241,1.316,0.105,1.949
		c-0.376,1.761-0.853,3.501-1.337,5.238c-0.228,0.817-0.524,1.622-0.853,2.407c-0.604,1.445-1.483,2.717-1.381,4.48
		c0.063,1.091-0.68,2.276-1.226,3.336c-0.416,0.808-0.938,1.529-2.142,1.555c-0.77,0.018-1.526,0.665-2.358,1.063
		c-0.319,2.286-0.951,4.51-0.847,6.698c0.106,2.281-0.297,4.436-0.603,6.635c-0.079,0.56-0.198,1.113-0.333,1.858h3.596
		c0.873,1.731,2.164,1.952,3.908,1.481c0.889-0.239,1.777-0.081,2.386-1.047c0.184-0.294,0.938-0.229,1.443-0.332
		c0.197,0.257,0.361,0.444,0.496,0.652c1.25,1.924,1.631,2.078,3.688,0.963c0.873-0.472,1.686-0.422,2.472-0.12
		c2.791,1.069,5.523,0.33,8.051-0.604c1.454-0.536,2.747-0.647,4.191-0.593c1.664,0.063,3.347,0.234,5.122-0.104
		c-10.517-49.59-20.984-98.942-31.431-148.198h-32.129c-10.504,49.298-21.035,98.673-31.568,148.246
		c1.277,0.175,2.283,0.331,3.292,0.447c1.864,0.214,3.787,0.061,5.497,1.125c0.391,0.243,1.093,0.33,1.496,0.146
		c1.541-0.703,3.029-0.146,4.55-0.053c1.179,0.071,2.486,0.149,3.533-0.275c1.001-0.407,1.739-1.462,2.739-2.364
		c0.515,0.493,1.268,0.98,1.69,1.671c0.743,1.219,1.72,1.516,3.048,1.361c2.131-0.246,4.273-0.389,6.41-0.584
		c0.585-0.055,1.169-0.14,1.781-0.214c0.283-0.809,0.566-1.525,0.784-2.263c0.489-1.649,0.862-3.335,2.406-4.433
		c0.288-0.205,0.477-0.739,0.478-1.123c0.004-0.942-0.126-1.886-0.208-2.827c-0.074-0.852-0.155-1.702-0.231-2.554
		c-0.557,0.541-0.735,1.084-0.847,1.641c-0.101,0.501-0.049,1.044-0.208,1.52c-0.237,0.708-0.728,0.913-1.449,0.344
		c0.071-0.884,0.216-1.813,0.208-2.738c-0.03-3.348-0.254-6.7-0.118-10.038c0.076-1.854,0.34-3.901,1.221-5.465
		c0.78-1.384,0.807-2.696,1.012-4.115c-0.384,0.239-0.645,0.534-0.824,0.873c-0.881,1.672-1.684,3.39-2.625,5.027
		c-1.021,1.777-1.667,3.522-0.92,5.62c0.236,0.663,0.434,1.7-0.702,2.249c-0.351-0.569-0.659-1.071-1.051-1.71
		c-0.449,1.974,2.591,3.235,0.768,5.221c-0.299-0.065-0.525-0.045-0.621-0.145c-2.01-2.136-3.269-4.555-2.849-7.607
		c0.101-0.731,0.644-1.532-0.083-2.183c-0.572-0.513-0.377-0.96-0.256-1.589c0.27-1.379,1.155-2.708,0.52-4.196
		c-1.058-0.094-2.067-0.188-2.645,1.016c-0.169,0.352-0.603,0.597-0.951,0.841c-1.618,1.136-3.247,2.254-4.873,3.379
		c-2.186,1.514-2.246,1.519-4.671,0.276c-1.875,0.716-3.165,1.874-3.263,4.105c-0.035,0.79-0.436,1.564-0.786,2.74
		c0.147-1.928,0.265-3.45,0.385-5.025c-0.618-0.138-1.083-0.242-1.714-0.382c0.636-0.293,1.138-0.522,1.633-0.749
		c-0.162-0.409-0.274-0.692-0.393-0.992c2.028-0.497,3.497-1.695,4.645-3.396c0.561-0.83,1.311-1.532,1.896-2.2
		c4.743,1.106,8.777-1.858,11.51-6.527c-2.026,1.641-3.261,3.565-5.319,4.17c1.476-1.61,2.99-3.208,4.444-4.86
		c1.529-1.738,3.003-3.526,4.491-5.301c0.147-0.177,0.362-0.468,0.307-0.617c-0.467-1.254,0.571-2.09,0.832-3.134
		c0.198-0.796,0.552-1.554,0.871-2.42c-0.791-0.269-1.407-0.479-2.06-0.7c-0.16-1.791,0.436-3.319,0.981-4.845
		c0.864-2.412,2.199-4.456,4.538-5.726c0.498-0.271,0.98-0.715,1.266-1.2c0.811-1.373,1.914-2.104,3.572-1.8
		c0.212-1.464-0.018-2.692-0.541-3.896c-0.919-2.121-0.945-4.327-0.485-6.549c0.744-3.601,4.827-6.188,8.423-5.506
		c3.033,0.575,4.214,2.778,4.885,5.365c0.452,1.737,0.649,3.552,0.829,5.346C457.247,134.587,457.146,135.841,457.146,137.159
		 M762.598,212.625c-1.028,0.005-2.059-0.105-3.083-0.21c-4.195-0.425-8.385-0.787-12.551,0.241
		c-2.214,0.546-4.444,0.528-6.619-0.117c-2.221-0.661-4.197-0.103-6.277,0.855c0.808,2.389,1.587,4.691,2.377,7.024h32.356
		c-1.037-2.76-2.021-5.521-3.143-8.071C764.445,212.464,763.521,212.622,762.598,212.625 M738.087,211.285
		c1.861-0.141,3.698-0.641,5.591,0.087c0.628,0.241,1.504-0.095,2.247-0.258c0.485-0.107,0.932-0.545,1.399-0.554
		c3.604-0.068,7.209-0.092,10.812-0.06c0.554,0.005,1.282,0.696,1.626,0.511c1.598-0.864,3.361-0.147,5.13-0.644
		c-0.581-1.518-1.118-2.925-1.69-4.422c-0.98,0-1.833-0.001-2.684,0.001c-9.443,0.021-18.887,0.044-28.33,0.069
		c-0.078,0-0.172,0.05-0.23,0.105c-0.052,0.048-0.063,0.139-0.172,0.401c0.248,0.725,0.544,1.596,0.851,2.491
		c1.067,0,2.002,0.024,2.935-0.006c1.875-0.06,3.655-0.19,5.475-1.057c1.238-0.591,3.156-0.514,4.471,0.013
		c1.426,0.571,2.79,0.741,4.214,0.728c1.8-0.014,3.599-0.197,5.394-0.367c1.398-0.133,2.885,0.382,4.182-0.68
		c0.293-0.24,1.025-0.094,1.49,0.066c0.769,0.263,1.484,0.681,2.592,1.211c-10.273,0.813-20.207,0.392-30.038,1.306
		c-0.169,0.911,0.151,1.375,0.892,1.349C735.524,211.533,736.804,211.383,738.087,211.285 M792.569,205.946
		c-5.674,0.001-11.35-0.001-17.025,0.017c-0.402,0.001-0.803,0.147-1.297,0.244c0.047,0.757,0.087,1.412,0.137,2.232
		c1.149,0.042,2.166,0.123,3.181,0.109c3.61-0.051,7.222-0.136,10.832-0.202c0.687-0.013,1.385-0.074,2.053,0.038
		c0.325,0.055,0.591,0.457,1.208,0.974c-1.04,0.169-1.683,0.354-2.328,0.365c-4.383,0.078-8.768,0.115-13.149,0.18
		c-0.603,0.009-1.312-0.212-1.973,0.714c9.762,1.398,19.22,0.065,28.675-0.236c0.069,0.203,0.138,0.404,0.206,0.606
		c-0.376,0.269-0.721,0.686-1.135,0.771c-0.746,0.156-1.533,0.149-2.306,0.152c-5.674,0.018-11.35-0.006-17.024,0.041
		c-2.726,0.022-5.45,0.169-8.392,0.265c0,1.577-0.039,2.938,0.011,4.294c0.029,0.796-0.047,1.604-0.04,2.398h-0.001v1.51h30.286
		v-14.326c-0.789-0.055-1.452-0.138-2.114-0.141C799.105,205.937,795.838,205.945,792.569,205.946 M801.3,208.973
		c-1.911,0.186-3.822,0.37-5.796,0.56c-0.222-0.876-0.113-1.405,0.679-1.436c1.53-0.063,3.063-0.054,4.595-0.032
		c0.186,0.003,0.368,0.261,0.552,0.399C801.319,208.634,801.31,208.804,801.3,208.973 M774.372,55.919
		c-0.295,21.181-0.185,144.965,0.224,146.982h2.473c4.904,0,9.806,0,14.709,0c1.114-0.001,2.173,0.076,3.263,0.515
		c1.156,0.466,2.487,0.808,3.71,0.724c1.839-0.126,3.649-0.668,5.703-1.08c0.053-0.248,0.151-0.495,0.151-0.742
		c0.01-49.249,0.014-98.495,0.014-147.744V52.93h-30.246V55.919z M881.746,201.83c0.164-0.029,0.386-0.053,0.506,0.029
		c1.601,1.093,3.32,0.731,5.098,0.68c1.09-0.033,1.936-0.451,2.9-0.637c2.404-0.465,4.852-0.719,7.291-0.979
		c0.465-0.05,0.986,0.22,1.449,0.419c0.785,0.338,1.521,0.81,2.324,1.086c0.531,0.184,1.178,0.266,1.717,0.145
		c1.148-0.257,2.262-0.675,3.547-1.077c-10.506-49.54-21-99.021-31.508-148.566h-31.924c-1.833,7.308-32.189,149.103-31.986,150.942
		c0.56-0.07,1.273,0.053,1.646-0.247c1.122-0.907,2.389-0.864,3.669-0.829c1.976,0.055,3.949,0.207,5.927,0.241
		c2.141,0.037,4.285,0.021,6.426-0.041c0.78-0.022,1.471-0.132,2.142,0.501c0.862,0.814,1.934,0.763,2.823,0.038
		c0.915-0.743,1.898-0.65,2.935-0.565c1.783,0.149,3.569,0.267,5.399,0.4c0.202-0.477,0.243-0.555,0.269-0.636
		c0.051-0.163,0.104-0.328,0.137-0.495c5.354-27.58,10.705-55.16,16.063-82.739c0.015-0.078,0.074-0.173,0.142-0.209
		c0.059-0.032,0.157,0.004,0.503,0.03c5.127,26.812,10.266,53.692,15.391,80.498C876.932,201.057,879.097,202.301,881.746,201.83
		 M830.556,202.638c-0.226-0.469-0.494-0.765-0.435-0.967c0.067-0.231,0.424-0.377,0.656-0.561c0.173,0.229,0.493,0.465,0.48,0.684
		C831.245,202.022,830.913,202.232,830.556,202.638 M448.777,206.194c0.523,0.964,0.975,1.796,1.568,2.891
		c0.302-1.063,0.767-1.854,0.191-2.891H448.777z M657.174,206.074c0.234,0.536,0.358,1.162,0.537,1.178
		c1.365,0.12,2.695,0.295,3.935,0.946c0.191,0.101,0.626,0.089,0.728-0.043c0.796-1.03,2.105-0.45,2.97-0.865
		c0.13-0.31,0.224-0.461,0.253-0.624c0.028-0.164-0.011-0.336-0.023-0.592H657.174z M658.378,208.683
		c-0.546,0.003-1.038,0.131-1.06,0.801c-0.022,0.688,0.505,0.826,1.023,0.854c1.779,0.095,3.561,0.17,5.341,0.219
		c0.705,0.02,1.1-0.352,1.08-1.454c-1.744-0.129-3.429-0.258-5.113-0.377C659.227,208.697,658.802,208.681,658.378,208.683
		 M740.109,204.419c0.502,0.043,1.029,0.169,1.475,0.395c1.363,0.69,2.463,0.444,3.419-0.731c0.688-0.847,1.669-1.485,2.694-1.217
		c1.345,0.349,2.674,0.253,4.006,0.329c1.704,0.099,3.416,0.107,5.123,0.089c1.199-0.015,2.398-0.123,3.595-0.22
		c0.47-0.038,0.933-0.16,1.556-0.271c-0.366-0.996-0.648-1.793-0.953-2.58c-6.029-15.631-12.069-31.259-18.076-46.898
		c-0.347-0.902-1.009-1.786-0.715-2.844c2.238-0.286,4.384-0.445,6.482-0.849c7.064-1.359,11.341-5.539,12.557-12.283
		c0.318-1.768,0.47-3.59,0.472-5.388c0.033-19.092,0.046-38.184-0.002-57.275c-0.009-3.78-0.257-7.559-1.329-11.234
		c-1.498-5.135-4.791-8.392-9.95-9.841c-1.07-0.3-2.147-0.516-3.228-0.671h-70.169c-0.022,1.239-0.05,2.315-0.05,3.39
		c-0.003,47.901-0.002,95.803-0.002,143.706c0,0.688-0.043,1.381,0.02,2.063c0.05,0.56,0.228,1.105,0.353,1.673
		c2.91,0.183,5.616,0.137,8.344-0.4c1.193-0.235,2.713-0.203,3.727,0.356c1.663,0.918,3.019,0.753,4.587,0.005
		c0.531-0.253,1.576-0.341,1.852-0.028c0.582,0.654,1.18,0.783,1.952,0.922c0.468,0.084,0.85,0.647,1.677,1.331
		c-1.392,0-2.236,0-3.081,0c-6.105,0.004-12.212,0.004-18.317,0.019c-0.315,0.001-0.631,0.138-1.071,0.239
		c0.057,0.748,0.106,1.393,0.164,2.142c2.366,0.129,4.585,0.328,6.804,0.333c0.971,0.001,1.94-0.382,2.912-0.598
		c-0.016,0.021-0.033,0.041-0.049,0.062c2.374-0.532,4.743-0.421,7.166-0.281c3.94,0.228,7.903,0.117,11.855,0.063
		c1.344-0.018,1.343-0.14,1.154-1.951h-5.34c1.732-1.302,4.018-1.326,5.665-3.295v-2.99c0-37.325,0-74.648,0-111.972
		c0-0.774-0.034-1.551,0.014-2.321c0.035-0.563,0.181-1.118,0.277-1.676c0.507-0.044,0.848-0.098,1.187-0.098
		c5.677-0.005,11.353-0.005,17.028-0.004c0.344,0.001,0.689-0.004,1.031,0.031c2.211,0.228,3.259,1.17,3.567,3.36
		c0.166,1.187,0.223,2.398,0.226,3.6c0.019,7.481,0.018,14.964,0.002,22.445c-0.003,1.116-0.051,2.238-0.185,3.346
		c-0.305,2.509-1.27,3.43-3.81,3.702c-0.683,0.073-1.375,0.052-2.063,0.053c-2.839,0.005-5.677-0.009-8.515,0.012
		c-0.658,0.004-1.316,0.109-2.088,0.178c-0.041,0.654-0.1,1.156-0.1,1.659c-0.005,10.147-0.017,20.296,0.017,30.444
		c0.004,0.923,0.199,1.882,0.494,2.761c5.186,15.477,10.396,30.945,15.612,46.412c0.697,2.068,0.793,2.103,2.877,2.25
		C735.344,204.036,737.729,204.21,740.109,204.419 M686.942,208.07c-0.889-0.119-1.779-0.237-2.821-0.375
		c1.466-0.895,1.796-0.958,3.68-0.699C687.475,207.405,687.206,207.74,686.942,208.07 M678.512,211.804
		c1.021-0.087,2.078-0.119,3.041-0.421c1.85-0.58,3.673-0.617,5.577-0.363c1.513,0.201,3.108,0.367,4.587,0.104
		c2.936-0.525,5.771-0.294,8.656,0.278c2.256,0.447,4.555,0.364,6.858,0.119v-1.912c-0.682,0-1.263,0.014-1.842-0.002
		c-1.628-0.048-3.279,0.06-4.874-0.189c-5.833-0.917-11.618-0.4-17.409,0.337c-1.527,0.195-3.066,0.302-4.598,0.478
		c-0.572,0.066-1.347,0.031-1.346,0.852C677.166,211.965,677.944,211.852,678.512,211.804 M677.002,213.162
		c0.114,2.489-0.176,4.896,0.145,7.257h30.114v-7.381c-5.095-0.19-9.931-0.096-14.697-0.624
		C687.366,211.84,682.356,213.12,677.002,213.162 M665.87,68.761c-1.166-8.879-6.239-14.111-15.071-15.528
		c-3.04-0.487-6.158-0.642-9.242-0.661c-11.953-0.073-23.907-0.033-35.86-0.024c-1.72,0.002-3.455-0.063-5.154,0.137
		c-2.553,0.301-5.132,0.617-7.609,1.267c-6.273,1.648-10.089,5.8-11.103,12.182c-0.604,3.802-0.896,7.693-0.9,11.545
		c-0.063,39.129-0.047,78.259-0.021,117.387c0.002,2.835,0.227,5.67,0.397,8.501c0.034,0.544,0.309,1.073,0.516,1.756
		c1.077-0.332,1.957-0.604,2.753-0.85c0.211-0.601,0.366-1.049,0.491-1.407c0.264-0.056,0.348-0.091,0.432-0.088
		c2.87,0.078,5.857-0.747,8.497,1.126c0.18,0.128,0.501,0.044,0.753,0.084c0.651,0.102,1.366,0.083,1.941,0.354
		c1.591,0.75,3.093,0.921,4.574-0.239v-2.022c0.673,0.498,1.121,0.811,1.545,1.153c0.25,0.202,0.451,0.638,0.695,0.654
		c1.509,0.103,3.08,0.683,4.495-0.324c1.281-0.91,2.537-0.903,3.824-0.049c1.205,0.798,2.244,0.647,3.563-0.073
		c2.88-1.577,5.995-0.672,9.028-0.339c0.073,0.008,0.132,0.109,0.206,0.15c2.787,1.564,5.679,1.287,8.426,0.098
		c1.412-0.611,2.565-0.849,3.84,0.016c0.927,0.628,1.879,0.604,2.949,0.39c2.648-0.534,5.304-1.215,8.044-0.572
		c0.106,0.025,0.262-0.159,0.592-0.374v-6.282c0-1.118-0.04-2.238,0.012-3.354c0.05-1.042-0.262-2.156,0.724-3.12
		c0.114,1.378,0.229,2.755,0.355,4.253c0.47-0.098,1.006-0.084,1.062-0.241c0.735-2.055,1.744-4.043,1.771-6.293
		c0.035-3.036,0.066-6.031,0.546-9.08c0.526-3.342,0.12-6.828,0.12-10.214c-0.357-0.626-1.751-0.034-1.44-1.458
		c1.031,0.048,2.046,0.095,3.408,0.158c-0.589,1.05-1.678,1.267-1.675,2.437c0.018,5.236,0.759,10.4,1.285,15.589
		c0.126,1.241-0.008,2.508-0.033,3.765c-0.026,1.276,0.351,2.386,1.242,3.447c0.331-0.908,0.596-1.634,0.86-2.358
		c0.161,0.031,0.324,0.063,0.486,0.095v13.143c2.382,0.612,4.337,1.047,6.463,0.741c2.41-0.345,2.592-0.314,2.704-2.645
		c0.099-2.061,0.121-4.127,0.122-6.19c0.008-20.381,0.005-40.764,0.005-61.146c0-18.489,0.028-36.979-0.026-55.469
		C666.451,75.442,666.304,72.073,665.87,68.761 M636.004,190.12c-0.141,0.174-0.188,0.248-0.25,0.305
		c-0.059,0.055-0.13,0.109-0.204,0.13c-0.166,0.046-0.337,0.099-0.505,0.099c-7.138,0.018-14.277,0.026-21.415,0.037
		c-0.684,0.001-1.366,0-2.2,0c-0.112-0.685-0.238-1.242-0.289-1.807c-0.046-0.512-0.012-1.03-0.012-1.547V86.964
		c0-1.015,0-2.029,0-3.254h24.481c0.18,0.154,0.259,0.2,0.307,0.269c0.045,0.066,0.079,0.156,0.079,0.235
		c0.029,34.831,0.058,69.664,0.082,104.494C636.078,189.215,636.024,189.723,636.004,190.12 M990.459,206.123
		c-0.691,1.013-0.742,2.024-0.096,3.406C991.197,208.174,991.029,207.158,990.459,206.123 M982.148,186.962
		c-0.969,0.063-1.705,0.108-2.391,0.151c-0.588,2.512-0.527,5.248,0.191,7.32c0.828-0.202,1.68-0.411,2.578-0.63
		C982.213,191.438,982.596,189.231,982.148,186.962 M905.271,205.947c-9.625,0.03-19.248,0.062-28.872,0.098
		c-0.076,0.001-0.16,0.068-0.223,0.124c-0.058,0.05-0.089,0.126-0.26,0.383c0.864,4.504,1.759,9.161,2.661,13.867h32.012
		c-1.043-4.887-2.053-9.621-3.09-14.473C906.631,205.946,905.951,205.944,905.271,205.947 M990.039,186.579
		c-0.063,0.977-0.1,1.541-0.137,2.106C991.088,188.156,990.996,187.563,990.039,186.579 M979.631,209.332h2.654v-3.24h-2.654
		V209.332z M999.725,212.449c-2.746,0.165-5.506-0.833-8.074,0.721c-0.131,0.078-0.338,0.038-0.51,0.038
		c-3.434,0.001-6.869,0.028-10.303-0.028c-0.547-0.01-1.104-0.364-1.631-0.617c-0.701-0.339-0.051-1.235-0.156-1.259
		c-1.584-0.347-0.932-1.591-1.063-2.5c-0.127-0.907,0.252-1.889-0.432-2.785h-8.465c2.086,5.021,4.035,9.712,5.982,14.4h24.904
		c0.006-1.339,0.025-2.585-0.01-3.825C999.93,215.245,1000.174,213.87,999.725,212.449 M929.664,205.946
		c-2.406,0-4.814-0.034-7.221,0.01c-2.373,0.045-4.762-0.201-7.131,0.176v14.287h29.008c0.033-4.714,0.043-9.462-0.006-14.473
		H929.664z M974.924,198.447c2.248,0.144,3.043-1.026,3.055-3.431c0.02-3.955,0.018-7.912,0.031-11.868
		c0.006-1.548,0.008-3.097,0.074-4.642c0.012-0.322,0.303-0.634,0.467-0.949c1.191,2.427,0.512,4.943,1.021,7.465h2.379
		c-0.104-1.526-0.277-3.026,1.189-3.954c0.408-2.146,0.947-4.274,1.18-6.439c0.16-1.498-0.189-3.045-0.152-4.565
		c0.053-2.221,0.277-4.438,0.357-6.659c0.012-0.366-0.33-0.745-0.504-1.108c1.391-0.9,1.545-2.202,1.572-3.639
		c0.096-5.146-0.424-10.303,0.275-15.439c0.076-0.56-0.09-1.152-0.131-1.595c-0.877-0.063-1.633,0.008-2.303-0.198
		c-1.031-0.319-0.77-1.12-0.545-1.805c1.102-0.669,1.725,0.236,2.537,0.494c0.928,0.294,1.725-1.166,2.844-0.519
		c0.902,1.9-0.844,2.03-1.689,2.521c0,5.855-0.006,11.526,0.01,17.197c0,0.415,0.074,0.864,0.242,1.239
		c0.93,2.07,1.188,4.247,1.266,6.495c0.047,1.388-0.539,2.929,0.707,4.155c0.119,0.117-0.078,0.603-0.188,0.896
		c-0.115,0.309-0.424,0.587-0.438,0.887c-0.133,3.125-0.324,6.261,1.674,9.01c0.268,0.37,0.246,0.963,0.324,1.458
		c0.039,0.25-0.012,0.515,0.004,0.771c0.016,0.254,0.061,0.506,0.092,0.758c0.855-1.23,0.523-2.511,0.602-3.749
		c0.08-1.268-0.229-2.647,1.092-3.911c0.967,2.941,0.359,5.699,0.555,8.395c0.193,2.692,0.131,5.396,0.127,8.11
		c2.531-0.361,4.799-0.687,7.328-1.048v-2.97c0-44.639,0-89.277-0.002-133.915c0-0.19,0.006-0.378,0.008-0.568l0,0v-0.022
		c0.004-0.198,0.006-0.395,0-0.591V52.93h-29.172v81.052c-0.178,0.037-0.354,0.074-0.529,0.111
		c-10.117-27.046-20.129-54.133-30.256-81.164h-24.855v2.563c0,47.906,0,95.813,0.002,143.72c0,0.603-0.029,1.207,0.025,1.805
		c0.088,0.959,0.604,1.43,1.535,1.238c0.738-0.151,1.508-0.43,2.115-0.859c0.992-0.7,1.924-0.844,3.111-0.535
		c1.057,0.275,2.207,0.266,3.313,0.234c1.887-0.055,3.775-0.192,5.656-0.354c1.451-0.125,2.955-0.15,4.328-0.57
		c1.609-0.494,2.973-0.374,4.426,0.435c1.33,0.738,2.775,1.273,4.574,1.088c0.031-1.133,0.082-2.146,0.082-3.158
		c0.006-15.911-0.002-31.823,0.016-47.735c0.002-0.888-0.225-1.84,0.463-3.03c7.287,17.491,14.447,34.672,21.598,51.835
		c0.445,0,0.699,0.033,0.941-0.006C969.871,199.195,972.26,198.277,974.924,198.447 M999.824,211.009v-4.69
		c-1.756-0.478-4.311-0.525-7.088-0.102c-0.434,1.686,0.205,3.509-0.402,5.39C994.814,211.409,997.252,211.213,999.824,211.009
		 M989.85,194.049c0.301-0.051,0.697-0.017,0.76-0.143c0.529-1.108,0.357-2.205-0.314-3.279
		C990.156,191.773,989.309,192.818,989.85,194.049 M807.278,220.418h31.764c0.915-4.726,1.816-9.391,2.778-14.356h-31.489
		C809.314,210.843,808.313,215.556,807.278,220.418 M840.229,207.606c-0.013,0.183-0.026,0.366-0.038,0.55
		c-0.486-0.03-0.974-0.06-1.459-0.09c-0.002-0.13-0.004-0.26-0.006-0.389C839.227,207.654,839.727,207.63,840.229,207.606
		 M839.815,210.054c-1.729,0.896-3.478,0.59-5.222,0.134C836.263,209.479,837.184,209.447,839.815,210.054 M827.709,208.525
		c-1.894,0.813-2.735,0.843-4.653,0.205C824.633,208.292,826.019,208.493,827.709,208.525 M818.524,208.936
		c-2.025,0.821-4.021,0.366-6.499,0.048C814.265,208.306,815.394,208.283,818.524,208.936 M811.714,211.687h4.206
		c0.004,0.118,0.007,0.236,0.011,0.354c-0.654,0-1.31,0-1.963,0c-0.752,0-1.504,0-2.256,0
		C811.713,211.923,811.713,211.805,811.714,211.687 M567.595,212.41c-8.087-0.777-16.153,0.279-24.229,0.146
		c-1.519-0.025-2.934,0.363-4.082,1.329c-0.933,0.786-1.89,1.049-3.068,0.899c-0.748-0.094-1.518-0.018-2.306-0.018
		c-0.164-0.52-0.217-0.859-0.372-1.144c-0.465-0.847-1.141-1.766-2.14-1.352c-0.906,0.376-1.661,0.223-2.489,0.092
		c-4.901-0.776-9.817-0.232-14.628,0.444c-3.807,0.536-7.486,0.493-11.45,0.085c-0.017,1.559-0.076,3.138-0.054,4.749h-0.006v2.776
		h70.705c0.04-2.866,0.073-5.469-0.021-7.981C571.339,212.437,569.45,212.588,567.595,212.41 M526.036,213.252h4.379
		C529.251,214.503,527.98,214.55,526.036,213.252 M463.61,173.794c0.036-0.702,0.072-1.403,0.117-2.295
		C462.214,172.191,462.836,172.984,463.61,173.794 M492.422,212.68c-3.063-0.013-6.132,0.058-9.189-0.091
		c-1.841-0.088-3.713-0.297-5.689-0.978c0.66-0.382,1.107-0.641,1.556-0.899c-0.053-0.152-0.104-0.305-0.157-0.457
		c-1.14-0.223-2.274-0.571-3.425-0.636c-1.204-0.066-2.474,0.619-3.566-0.414c0.536-0.48,0.792-1.069-0.024-1.389
		c-0.691-0.27-1.508-0.358-2.255-0.309c-1.877,0.123-3.747,0.357-5.615,0.59c-0.151,0.018-0.262,0.359-0.47,0.667
		c2.417,1.154,4.775-0.563,7.105,0.048c0.091,0.554,0.169,1.032,0.265,1.606c0.558,0.204,1.106,0.429,1.671,0.603
		c0.566,0.177,1.149,0.303,1.725,0.451c-1.006,0.452-1.933,0.527-2.86,0.59c-3.342,0.224-6.681,0.491-10.026,0.642
		c-1.251,0.056-2.062,0.568-2.708,1.583c-1.201,1.888-1.396,4.015-1.692,6.131h43.014c-0.541-2.529-1.083-5.06-1.655-7.737
		C496.333,212.681,494.378,212.689,492.422,212.68 M469.931,214.4c-1.839,0.393-3.686,0.743-5.53,1.111
		c-0.615,0.122-1.111-0.184-1.154-0.707c-0.031-0.392,0.346-0.851,0.625-1.214c0.13-0.168,0.459-0.238,0.705-0.254
		c1.944-0.118,3.88-0.03,5.813,0.087c0.041,0.172,0.081,0.342,0.122,0.514C470.319,214.097,470.147,214.354,469.931,214.4
		 M474.303,214.109c1.171-0.725,1.921-0.535,2.649,0H474.303z M504.702,211.192c0.044-0.22,0.088-0.439,0.132-0.659
		c-0.491-0.119-0.979-0.281-1.478-0.332c-0.141-0.014-0.464,0.328-0.44,0.456c0.052,0.271,0.258,0.706,0.436,0.724
		C503.792,211.421,504.25,211.267,504.702,211.192 M516.559,210.156c-2.004,0-4.018,0-6.03,0c-0.341,0-0.685-0.013-1.023,0.014
		c-0.161,0.012-0.318,0.094-0.471,0.16c-0.073,0.033-0.139,0.099-0.188,0.162c-0.051,0.066-0.079,0.15-0.2,0.398
		c1.609,0.759,4.932,0.959,6.791,0.416C515.968,211.152,516.694,211.123,516.559,210.156 M418.308,176.642
		c1.369-0.848,2.739-1.693,4.417-2.731c-2.337-0.307-3.291,1.391-4.698,2.173L418.308,176.642z M433.254,161.603
		c-0.534,0.568-1.066,1.138-1.945,2.074C432.979,162.887,432.979,162.887,433.254,161.603 M450.672,197.624
		c-1.192,1.137-0.907,2.494-1.635,3.874c0.798-0.197,1.229-0.304,1.635-0.403V197.624z M429.169,168.95
		c1.02-0.757,2.04-1.514,3.17-2.353c-0.379-0.269-0.619-0.558-0.751-0.514C430.221,166.526,429.646,167.693,429.169,168.95
		 M522.879,211.592c1.756-0.004,3.415-0.479,5.103-1.161c-0.466-0.411-0.968-0.775-1.448-0.748c-1.605,0.092-3.202,0.312-4.8,0.518
		c-0.213,0.027-0.4,0.258-0.713,0.472C521.475,211.661,522.213,211.594,522.879,211.592 M463.827,164.193
		c-0.256-0.69-0.109-1.665-1.165-1.98c-0.158,5.171-0.158,5.171,0.951,6.021c0.088-1.074,0.178-2.054,0.246-3.035
		C463.881,164.864,463.938,164.492,463.827,164.193 M541.585,211.168c1.586,0.062,3.173,0.089,4.759,0.062
		c0.114-0.002,0.219-0.5,0.396-0.93c-2.017-0.345-3.793-0.269-6.11-0.004C541.236,210.864,541.405,211.162,541.585,211.168
		 M598.912,211.503c1.587,0.036,3.156,0.38,4.673-0.602C601.815,209.67,599.58,209.964,598.912,211.503 M619.463,210.395
		c-4.281-0.507-8.599-0.944-12.891-1.553c-2.27-0.321-4.498-0.457-6.74,0.018c2.734,0.291,5.502,0.417,8.19,0.94
		C611.842,210.542,615.646,210.661,619.463,210.395 M622.832,211.785c-9.876,0.002-19.742,0.772-29.621,0.332
		c-0.601-0.026-1.203,0.032-1.805,0.021c-0.808-0.016-1.473,0.149-2.031,0.846c-0.893,1.115-2.104,0.994-3.3,0.572
		c-0.563-0.199-1.091-0.5-2.098-0.972c2.278,3.761,5.276,5.629,8.799,6.754c3.548,1.134,7.211,1.565,10.925,1.566
		c13.319,0.006,26.64,0.031,39.959-0.021c2.312-0.009,4.638-0.233,6.925-0.569c3.076-0.451,6.035-1.353,8.648-3.13
		c1.706-1.161,3.137-2.574,4.186-4.506c-2.775-0.194-5.314-0.389-7.855-0.546C644.659,211.454,633.744,211.78,622.832,211.785
		 M649.448,195.748c-0.083,2.515-0.162,4.969,0.117,7.426c0.015,0.126,0.373,0.213,0.762,0.421c0.101-1.244-0.142-2.52,0.349-3.373
		c0.88-1.528,0.312-2.918,0.353-4.474H649.448z M641.659,209.682c2.354,0.279,4.482,0.775,7.093,0.062
		C646.912,208.772,643.744,208.814,641.659,209.682 M649.476,206.74c0.018,0.254,0.33,0.687,0.51,0.688
		c0.413,0.003,0.827-0.208,1.56-0.428c-0.523-0.509-0.746-0.904-1.054-0.986C649.97,205.875,649.424,206.041,649.476,206.74
		 M585.462,207.439c0.165,0.286,0.369,0.809,0.531,0.799c2.062-0.118,3.132,1.075,3.644,2.744c1.162-0.322,2.115-0.687,3.101-0.838
		c1.865-0.287,3.753-0.421,5.62-0.688c0.425-0.061,0.813-0.358,1.215-0.57h-4.77c5.623-1.622,11.334-1.646,17.086-1.246
		c4.54,0.316,9.086,0.731,13.629,0.725c6.612-0.013,13.223-0.359,19.833-0.576c0.772-0.024,1.544-0.096,2.311-0.197
		c0.857-0.114,0.816-0.71,0.644-1.344c-2.009-0.392-64.065-0.387-66.375,0.009c-0.196,0.885,0.019,1.641,0.755,2.429
		c0.771-0.624,1.468-1.189,2.434-1.973C585.249,206.995,585.34,207.226,585.462,207.439 M536.882,211.464
		c0.039-0.225,0.077-0.448,0.115-0.672c-1.143-1.083-2.65-0.579-3.987-0.669c-0.919-0.062-2.062-0.388-2.749,0.795
		c0.23,0.212,0.407,0.521,0.589,0.524C532.86,211.476,534.871,211.464,536.882,211.464 M560.846,210.252
		c-3.678-1.098-6.975-0.207-10.257-0.131c-0.155,0.005-0.305,0.31-0.584,0.61c0.395,0.214,0.666,0.489,0.935,0.486
		c2.993-0.037,5.988-0.108,8.979-0.206C560.107,211.007,560.288,210.722,560.846,210.252 M572.843,203.988
		c0.704-1.036,0.659-2.08,0.662-3.179c0.006-2.494,0.018-4.989-0.012-7.481c-0.007-0.564-0.169-1.127-0.277-1.805h-23.088
		c-2.493,0-4.988,0.048-7.481-0.014c-2.537-0.063-5.1,0.277-7.524-0.201c-0.119-0.258-0.162-0.329-0.186-0.408
		c-0.023-0.083-0.031-0.169-0.041-0.255c-0.01-0.084-0.016-0.171-0.021-0.257c-0.005-0.085-0.007-0.172-0.009-0.257
		c-0.001-0.086-0.002-0.172-0.002-0.259c-0.002-44.298-0.003-88.595-0.004-132.893v-4.05h-32.072v3.103c0,47.208,0,94.417,0,141.625
		c0,0.602-0.023,1.204,0.008,1.805c0.075,1.432,0.773,2.177,2.19,2.329c0.425,0.046,0.869-0.063,1.285,0.012
		c0.568,0.104,1.237,0.169,1.646,0.51c0.824,0.688,1.697,0.684,2.662,0.619c3.181-0.211,6.317-0.62,9.402-1.479
		c1.688-0.47,3.449-0.683,4.21,1.469c0.896-0.056,1.655-0.146,2.413-0.145c4.899,0.018,9.8,0.024,14.698,0.09
		c6.87,0.091,13.738,0.217,20.607,0.362c0.938,0.021,1.868,0.275,2.807,0.348c1.446,0.112,2.896,0.17,4.345,0.233
		c0.57,0.024,1.142,0.005,1.783,0.005c0.091,0.601,0.187,1.101,0.229,1.604c0.011,0.131-0.144,0.276-0.346,0.633h-67.778v2.728
		c1.343-0.091,2.527-0.262,3.709-0.231c2.57,0.063,5.139,0.521,7.708-0.083c0.306-0.07,0.679,0.056,1.001,0.153
		c1.795,0.548,3.572,0.426,5.322-0.16c1.254-0.42,2.447-0.516,3.772-0.144c0.946,0.268,2.077,0.265,3.036,0.021
		c1.643-0.416,3.213-0.373,4.837-0.016c3.986,0.878,7.989,1.078,12.03,0.301c1.076-0.207,2.104-0.468,3.155-0.789
		c2.001-0.612,4.141-0.893,6.256,0.063c3.587,1.619,7.302,1.632,11.072,0.624c0.978-0.262,2.066-0.557,3.014-0.371
		c1.473,0.287,2.666,0.19,3.823-0.836c0.404-0.359,1.109-0.376,2.101-0.677C572.493,205.932,572.254,204.854,572.843,203.988
		 M560.405,207.721c-0.975-0.034-1.946-0.14-2.921-0.215l0.022-0.381h5.728C562.317,208.155,561.308,207.752,560.405,207.721"/>
	<rect x="0.145" y="19.349" width="438.589" height="6.451"/>
	<rect x="561.573" y="19.349" width="438.415" height="6.451"/>
	<path d="M547.719,15.16V9.855h-19.981V6.304h20.496V0.013h-27.251v25.724h27.533v-6.321H527.75V15.16H547.719z M504.256,0v9.372
		h-17.922v-9.36h-6.629v25.718h6.688V15.234h17.892v10.493h6.705V0H504.256z M459.278,25.756V5.632h10.975V0.01h-28.734v5.662
		h11.003v20.084H459.278z"/>
</g>
</svg>
